<svg xmlns="http://www.w3.org/2000/svg" xmlns:xlink="http://www.w3.org/1999/xlink" version="1.1" x="0px" y="0px" viewBox="0 0 100 125" style="enable-background:new 0 0 100 100;" xml:space="preserve"><g><g><ellipse cx="42.1" cy="33.1" rx="2.7" ry="2.7"/></g><g><ellipse cx="57.9" cy="33.1" rx="2.7" ry="2.7"/></g><g><path d="M52.3,40c0,0-0.7,0.9-2.3,0.9c-1.6,0-2.3-0.9-2.3-0.9c-0.1-0.2-0.3-0.1,0.1,0.7c0.7,1.2,1.6,1.3,2.2,1.3s1.5-0.1,2.2-1.3    C52.6,40,52.4,39.9,52.3,40z"/></g><g><path d="M30.1,42.7c-3.3,0-5.4-3.5-6.1-6.6c-0.7-3-0.5-6.3,1.7-7.2c3.3-1.3,5.8,0.9,6.5,1.6c0.2,0.2,0.3,0.5,0.3,0.8    c-0.6,4.3-0.9,7.8-0.9,10.4c0,0.5-0.4,0.9-0.9,1C30.4,42.7,30.2,42.7,30.1,42.7z M27.7,30.5c-0.4,0-0.8,0.1-1.3,0.3    c-0.8,0.3-1.1,2.4-0.5,4.9c0.5,2.2,1.8,4.4,3.5,4.9c0.1-2.5,0.4-5.5,0.9-9.1C29.7,31.1,28.8,30.5,27.7,30.5z"/></g><g><path d="M69.9,42.7c-0.1,0-0.3,0-0.4,0c-0.5,0-0.9-0.5-0.9-1c0-2.6-0.3-6.1-0.9-10.4c0-0.3,0.1-0.6,0.3-0.8    c0.7-0.7,3.2-2.9,6.5-1.6c2.2,0.9,2.4,4.3,1.7,7.2C75.3,39.3,73.2,42.7,69.9,42.7z M69.7,31.6c0.5,3.6,0.8,6.6,0.9,9.1    c1.7-0.5,3-2.8,3.5-4.9c0.6-2.6,0.3-4.6-0.5-4.9C71.9,30.1,70.5,30.9,69.7,31.6z"/></g><g><path d="M83.5,95h-67v-1c0-14.8,9.2-20.3,15.2-23.9c1.1-0.7,2.2-1.3,3-1.9c5.5-3.9,9-6.6,9-6.6l1.6-1.3v2.1c0,2.5,2.1,4.5,4.6,4.5    s4.6-2,4.6-4.5v-2.4l1.7,1.7c0.4,0.3,3.8,2.9,9,6.6l0,0c0.9,0.6,1.9,1.2,3,1.9c6.1,3.6,15.2,9.1,15.2,23.9V95z M18.5,93h62.9    c-0.4-12.9-8.4-17.7-14.2-21.2c-1.2-0.7-2.2-1.3-3.2-2l0,0c-3.4-2.4-6.1-4.4-7.7-5.6c-0.8,2.7-3.4,4.7-6.4,4.7c-3,0-5.6-2-6.4-4.7    c-1.5,1.1-4.2,3.2-7.7,5.6c-0.9,0.7-2,1.3-3.2,2C26.9,75.3,18.9,80.1,18.5,93z"/></g><g><path d="M50,68.9c-3.7,0-6.6-2.9-6.6-6.5v-5.7l1.5,0.8c2,1.1,3.7,1.7,5.1,1.7s3.1-0.6,5.1-1.7l1.5-0.8v5.7    C56.6,65.9,53.7,68.9,50,68.9z M45.4,60v2.4c0,2.5,2.1,4.5,4.6,4.5s4.6-2,4.6-4.5V60c-1.7,0.8-3.3,1.2-4.6,1.2S47.1,60.8,45.4,60z    "/></g><g><g><path d="M50,51.8c-5.7,0-7.5-3.9-7.5-4l1.9-0.8c0,0.1,1.3,2.8,5.7,2.8c4.3,0,5.7-2.8,5.7-2.8l1.9,0.8     C57.4,47.9,55.7,51.8,50,51.8z"/></g></g><g><path d="M30.5,94h-2v-4.3c0-2.8,2.3-6.5,2.4-6.7l1.7,1c-0.6,0.9-2.1,3.8-2.1,5.7V94z"/></g><g><path d="M71.5,94h-2v-4.3c0-1.9-1.5-4.7-2.1-5.7l1.7-1c0.1,0.2,2.4,3.9,2.4,6.7V94z"/></g><g><path d="M23.9,28.6c-3.5,0-5.5-1.5-6.2-2.1c-0.8-0.7-1.2-1.6-1.2-2.3c0-5.3,21.9-6.7,33.5-6.7s33.5,1.4,33.5,6.7    c0,0.8-0.4,1.6-1.2,2.3c-1.4,1.3-3.5,2.1-5.9,2c-3.7-0.1-7.5-0.8-11.5-1.5c-4.6-0.9-9.3-1.8-14.3-1.8c-5.2,0-10.2,0.9-14.9,1.9    c-4,0.8-7.8,1.5-11.5,1.6l0,0C24.1,28.6,24,28.6,23.9,28.6z M50,19.4c-8.6,0-16.7,0.6-22.8,1.7c-7.2,1.3-8.7,2.7-8.7,3    c0,0.1,0.1,0.4,0.6,0.9c0.4,0.4,2,1.7,5.1,1.6l0,0c3.5-0.1,7.2-0.8,11.1-1.6c4.9-0.9,9.9-1.9,15.3-1.9c5.2,0,10,0.9,14.7,1.8    c3.9,0.7,7.7,1.4,11.2,1.5c0,0,0.1,0,0.1,0c2.5,0,3.8-1,4.3-1.4c0.5-0.4,0.5-0.8,0.5-0.9c0-0.3-1.5-1.8-8.7-3    C66.7,20,58.6,19.4,50,19.4z"/></g><g><path d="M66.4,20.2c0,0-0.1,0-0.1,0c-4.9-0.5-10.5-0.8-16.2-0.8s-11.3,0.3-16.2,0.8c-0.4,0-0.7-0.1-0.9-0.4s-0.3-0.6-0.1-1    C36.3,9.7,39.5,5,42.3,5c2.3,0,3.5,0.7,4.5,1.4c0.9,0.6,1.6,1,3.2,1s2.3-0.5,3.2-1c1-0.7,2.2-1.4,4.5-1.4c2.8,0,6,4.7,9.6,13.8    c0.1,0.3,0.1,0.7-0.1,1C67,20.1,66.7,20.2,66.4,20.2z M50,17.4c5.2,0,10.2,0.2,14.8,0.6C61.7,10.5,59,7,57.7,7    c-1.7,0-2.5,0.5-3.4,1.1c-1,0.6-2.1,1.3-4.3,1.3s-3.3-0.7-4.3-1.3C44.8,7.5,44,7,42.3,7c-1.3,0-4,3.5-7.1,11    C39.8,17.6,44.8,17.4,50,17.4z"/></g><g><g><path d="M59.7,62.6c-2.8,0-4.4-0.5-4.4-0.5c-0.4-0.2-0.6-0.5-0.6-0.9v-2.8c0-0.4,0.2-0.7,0.5-0.9c5.5-3.1,11.6-9.4,12.8-11     c0.2-0.3,0.7-1.3,0.6-4.7c0-0.3,0.1-0.6,0.3-0.7c0.2-0.2,0.5-0.3,0.8-0.3c0.6,0.1,1.2-0.1,1.8-0.5c0.3-0.2,0.7-0.3,1-0.1     c0.3,0.2,0.6,0.5,0.6,0.9c0.3,9.1,0.8,17.2,0.8,17.3c0,0.4-0.2,0.8-0.6,1C67.5,62,62.8,62.6,59.7,62.6z M56.6,60.4     c1.9,0.3,7.4,0.9,15.2-2.7c-0.1-2-0.5-8.2-0.7-15.1c-0.2,0-0.3,0.1-0.5,0.1c0,2.5-0.4,4-1,4.9c-1,1.4-7,7.8-12.9,11.3V60.4z"/></g><g><path d="M40.3,62.6c-3.1,0-7.8-0.7-13.6-3.4c-0.4-0.2-0.6-0.6-0.6-1c0-0.1,0.5-8.2,0.8-17.3c0-0.4,0.2-0.7,0.6-0.9     c0.3-0.2,0.7-0.1,1,0.1c0.6,0.4,1.1,0.6,1.7,0.5c0.1,0,0.1,0,0.2,0c0.6,0,1,0.4,1,1c0,0,0,0,0,0l0,0c0,3.4,0.4,4.4,0.6,4.7l0,0     c1.2,1.6,7.3,8,12.8,11c0.3,0.2,0.5,0.5,0.5,0.9v2.8c0,0.4-0.3,0.8-0.7,1C44.6,62.2,43,62.6,40.3,62.6z M28.2,57.7     c7.7,3.5,13.3,3,15.2,2.7v-1.5c-5.9-3.5-11.9-9.9-12.9-11.3c0,0,0,0,0,0c-0.7-0.9-1-2.5-1-4.9c-0.2,0-0.3-0.1-0.5-0.1     C28.7,49.6,28.3,55.7,28.2,57.7z"/></g><g><g><path d="M31.4,32.3c-0.1,0-0.1,0-0.2,0c-0.3-0.1-0.6-0.2-0.7-0.5c-0.4-0.4-1.3-1.1-2.5-1.2c-0.5,0-0.9-0.5-0.9-1      c0-0.8,0-1.5,0-2.2c0-0.5,0.4-0.9,0.9-1c2-0.2,4-0.6,6.5-1.1c0.4-0.1,0.8,0.1,1,0.4c0.2,0.3,0.3,0.7,0.1,1.1      c-1.2,2.1-2.4,4-3,4.8c0,0,0,0,0,0C32.3,31.9,31.9,32.3,31.4,32.3z M31.1,32.1C31.1,32.1,31.1,32.1,31.1,32.1      C31.1,32.1,31.1,32.1,31.1,32.1z M29.1,28.7c0.8,0.2,1.6,0.6,2.1,1c0.4-0.5,0.9-1.3,1.4-2.1c-1.2,0.2-2.4,0.4-3.5,0.6      C29.1,28.3,29.1,28.5,29.1,28.7z"/></g><g><path d="M68.2,32.2c-9.1,0-18.1-3.7-24.1-6.8c-0.4-0.2-0.6-0.6-0.5-1.1c0.1-0.4,0.4-0.8,0.9-0.8c2.2-0.3,4.3-0.4,6.2-0.4      c5.2,0,10,0.9,14.7,1.8c2.4,0.4,4.6,0.9,6.8,1.2c0.5,0.1,0.9,0.5,0.9,1c0,0.8,0,1.6,0,2.5c0,0.5-0.4,0.9-0.9,1      c-1.3,0.1-2.3,1-2.6,1.4c-0.2,0.2-0.4,0.3-0.7,0.3C68.5,32.2,68.4,32.2,68.2,32.2z M48.3,25.2c5.6,2.6,12.8,5,20,5      c0.6-0.5,1.5-1.2,2.7-1.5c0-0.3,0-0.5,0-0.8c-1.9-0.3-3.9-0.7-6-1c-4.6-0.9-9.3-1.8-14.3-1.8C49.9,25.1,49.1,25.1,48.3,25.2z"/></g></g></g><g><path d="M47.6,95h-5.2c-0.4,0-0.8-0.3-0.9-0.6l-5.8-15.3c-0.1-0.3-0.1-0.6,0.1-0.9l2.4-4.1l-4.7-3.5c-0.3-0.2-0.4-0.5-0.4-0.8    c0-0.3,0.2-0.6,0.5-0.8c0.5-0.3,1-0.6,1.3-0.9c5.5-3.9,9-6.6,9-6.6c0.3-0.2,0.7-0.3,1.1-0.1c0.4,0.2,0.6,0.5,0.6,0.9    c0,0.5,0.1,1,0.3,1.5c0,0.1,0,0.2,0.1,0.2l2.9,29.8c0,0.3-0.1,0.6-0.3,0.8C48.2,94.9,47.9,95,47.6,95z M43.1,93h3.4l-2.8-28.6    c0-0.1,0-0.1-0.1-0.2c-1.5,1.1-4.2,3.2-7.7,5.6c-0.1,0-0.1,0.1-0.2,0.1l4.3,3.1c0.4,0.3,0.5,0.9,0.3,1.3l-2.7,4.5L43.1,93z"/></g><g><path d="M57.6,95h-5.2c-0.3,0-0.6-0.1-0.8-0.3c-0.2-0.2-0.3-0.5-0.3-0.8l2.9-29.8c0-0.1,0-0.2,0.1-0.2c0.2-0.5,0.3-1,0.3-1.5    c0-0.4,0.2-0.7,0.6-0.9c0.4-0.2,0.8-0.1,1.1,0.1c0,0,3.5,2.7,9,6.6c0.3,0.2,0.8,0.5,1.3,0.9c0.3,0.2,0.5,0.5,0.5,0.8    s-0.1,0.6-0.4,0.8l-4.7,3.5l2.4,4.1c0.2,0.3,0.2,0.6,0.1,0.9l-5.8,15.3C58.4,94.7,58,95,57.6,95z M53.5,93h3.4l5.4-14.2l-2.7-4.5    c-0.3-0.4-0.1-1,0.3-1.3l4.3-3.1c-0.1,0-0.1-0.1-0.2-0.1c-3.5-2.5-6.2-4.5-7.7-5.6c0,0.1,0,0.1-0.1,0.2L53.5,93z"/></g><g><g><path d="M50,61.2c-7.4,0-18.5-12.2-19.6-13.6c-0.5-0.7-2-2.7-0.1-16.5c0-0.2,0.1-0.3,0.2-0.5c0.1-0.1,1.5-2,2.9-4.4     c0-0.4,0.4-0.8,0.8-0.9l0,0l0.9-0.2c3-0.6,6.1-1.2,9.3-1.5c0.2,0,0.4,0,0.6,0.1c5.9,3.1,14.8,6.7,23.6,6.6c0,0,0,0,0,0     c0.5,0,0.9,0.4,1,0.9c2,13.8,0.4,15.9-0.1,16.6C68.5,49,57.4,61.2,50,61.2z M32.3,31.7c-1.6,11.7-0.6,14.2-0.2,14.7     c1.4,1.9,11.8,12.7,17.9,12.7s16.5-10.9,17.9-12.7c0.4-0.5,1.4-2.9-0.2-14.2c-8.8-0.1-17.4-3.6-23.4-6.7c-3,0.4-6,0.9-8.8,1.5     l-0.3,0.1c-1.1,1.9-2.3,3.6-2.8,4.4c0,0,0,0,0,0C32.4,31.6,32.4,31.7,32.3,31.7z"/></g></g></g><text x="0" y="115" fill="#000000" font-size="5px" font-weight="bold" font-family="'Helvetica Neue', Helvetica, Arial-Unicode, Arial, Sans-serif">Created by Royyan Wijaya</text><text x="0" y="120" fill="#000000" font-size="5px" font-weight="bold" font-family="'Helvetica Neue', Helvetica, Arial-Unicode, Arial, Sans-serif">from the Noun Project</text></svg>